<svg xmlns="http://www.w3.org/2000/svg" xmlns:xlink="http://www.w3.org/1999/xlink" width="60" height="32" viewBox="0 0 60 32"><defs><path id="jbb9a" d="M895.2 85.86a5 5 0 1 1 7.07 7.07L895.2 100l7.07 7.07a5 5 0 0 1-7.07 7.07L881.06 100z"/><path id="jbb9b" d="M873.99 107.07l7.07-7.07-7.07-7.07a5 5 0 0 1 7.07-7.07L895.2 100l-14.14 14.14a5 5 0 1 1-7.07-7.07z"/><path id="jbb9c" d="M845.7 107.07l7.07-7.07-7.07-7.07a5 5 0 1 1 7.07-7.07L866.92 100l-14.15 14.14a5 5 0 1 1-7.07-7.07z"/></defs><g><g transform="translate(-844 -84)"><use fill="#f48fb1" xlink:href="#jbb9a"/></g><g transform="translate(-844 -84)"><use fill="#880e4f" xlink:href="#jbb9b"/></g><g transform="translate(-844 -84)"><use fill="#ff8a65" xlink:href="#jbb9c"/></g></g></svg>